<?xml version="1.0" encoding="UTF-8"?>
<svg id="Capa_1" xmlns="http://www.w3.org/2000/svg" version="1.1" viewBox="0 0 612 236.21">
  <!-- Generator: Adobe Illustrator 30.0.0, SVG Export Plug-In . SVG Version: 2.1.1 Build 123)  -->
  <defs>
    <style>
      .st0 {
        fill: #0e8ece;
      }

      .st1 {
        fill: #2665ad;
      }

      .st2 {
        fill: #161616;
      }

      .st3 {
        fill: #8cbe27;
      }
    </style>
  </defs>
  <g>
    <path class="st2" d="M568.19,105.74c-6.8,0-12.33-5.53-12.33-12.34s5.53-12.33,12.33-12.33,12.34,5.53,12.34,12.33-5.53,12.34-12.34,12.34ZM568.19,82.46c-6.04,0-10.95,4.91-10.95,10.95s4.91,10.95,10.95,10.95,10.95-4.91,10.95-10.95-4.91-10.95-10.95-10.95Z"/>
    <path class="st2" d="M571.26,99.56l-3.15-5.38h-2.09v5.38h-1.72v-13.16h4.26c1,0,1.84.17,2.53.51.69.34,1.2.8,1.55,1.38.34.58.51,1.24.51,1.98,0,.91-.26,1.71-.79,2.4s-1.31,1.15-2.36,1.38l3.32,5.51h-2.07ZM566.02,92.8h2.54c.94,0,1.64-.23,2.1-.69.47-.46.7-1.07.7-1.84s-.23-1.39-.69-1.81c-.46-.43-1.16-.64-2.11-.64h-2.54v4.99Z"/>
  </g>
  <g>
    <g>
      <path class="st2" d="M381.36,200.52v8.85h-2.14v-21.21h6.35c2.39,0,4.17.55,5.34,1.65,1.17,1.1,1.76,2.62,1.76,4.54s-.61,3.48-1.82,4.56c-1.21,1.07-2.97,1.61-5.28,1.61h-4.21ZM389.33,197.59c.8-.75,1.2-1.83,1.2-3.23s-.4-2.54-1.2-3.3c-.8-.75-2.12-1.13-3.94-1.13h-4.03v8.78h4.03c1.83,0,3.14-.38,3.94-1.13Z"/>
      <path class="st2" d="M408.15,194.02c1.17.86,1.98,2.01,2.42,3.43v-4.51h2.08v16.43h-2.08v-4.51c-.44,1.42-1.25,2.57-2.42,3.43-1.17.86-2.59,1.29-4.26,1.29-1.49,0-2.81-.34-3.99-1.02-1.17-.68-2.09-1.66-2.74-2.93-.65-1.27-.98-2.76-.98-4.47s.33-3.22.98-4.5c.65-1.27,1.56-2.25,2.72-2.92,1.16-.67,2.5-1.01,4-1.01,1.66,0,3.08.43,4.26,1.29ZM400,196.35c-1.11,1.17-1.67,2.77-1.67,4.8s.56,3.63,1.67,4.8c1.11,1.17,2.59,1.76,4.44,1.76,1.16,0,2.21-.27,3.14-.81.93-.54,1.66-1.31,2.2-2.3.53-.99.8-2.14.8-3.45s-.27-2.45-.8-3.44c-.53-.99-1.26-1.76-2.2-2.3-.93-.54-1.98-.81-3.14-.81-1.85,0-3.32.59-4.44,1.76Z"/>
      <path class="st2" d="M425.65,207.5v1.86h-1.95c-1.58,0-2.77-.38-3.55-1.13-.78-.75-1.17-2.02-1.17-3.81v-9.66h-2.5v-1.84h2.5v-4.15h2.14v4.15h4.51v1.84h-4.51v9.69c0,1.16.21,1.96.63,2.39.42.43,1.16.65,2.23.65h1.68Z"/>
      <path class="st2" d="M434.52,193.6c1.06-.64,2.36-.96,3.88-.96v2.29h-.69c-1.58,0-2.9.43-3.94,1.28-1.04.85-1.56,2.24-1.56,4.17v9h-2.14v-16.43h2.14v3.4c.48-1.18,1.25-2.1,2.32-2.74Z"/>
      <path class="st2" d="M442.12,188.44c.29-.26.67-.39,1.13-.39s.83.13,1.11.39c.28.26.42.61.42,1.05s-.14.76-.42,1.02c-.28.26-.65.39-1.11.39s-.84-.13-1.13-.39-.44-.6-.44-1.02.15-.79.44-1.05ZM444.3,192.94v16.43h-2.14v-16.43h2.14Z"/>
      <path class="st2" d="M474.37,194.46c1.17,1.21,1.76,2.99,1.76,5.34v9.57h-2.11v-9.42c0-1.76-.43-3.12-1.28-4.06-.85-.94-2.02-1.41-3.5-1.41-1.58,0-2.85.52-3.79,1.56-.94,1.04-1.41,2.58-1.41,4.6v8.72h-2.08v-9.42c0-1.76-.43-3.12-1.28-4.06-.85-.94-2.02-1.41-3.51-1.41-1.58,0-2.85.52-3.79,1.56-.94,1.04-1.41,2.58-1.41,4.6v8.72h-2.14v-16.43h2.14v3.91c.4-1.38,1.13-2.43,2.18-3.14,1.05-.71,2.27-1.07,3.66-1.07s2.69.38,3.73,1.14c1.04.76,1.76,1.89,2.17,3.37.44-1.46,1.21-2.58,2.32-3.36,1.1-.77,2.36-1.16,3.76-1.16,1.89,0,3.42.61,4.59,1.82Z"/>
      <path class="st2" d="M493.14,193.74c1.23.67,2.2,1.64,2.9,2.92.7,1.27,1.05,2.77,1.05,4.5s-.35,3.22-1.05,4.48c-.7,1.26-1.67,2.24-2.9,2.92-1.23.68-2.63,1.02-4.2,1.02s-2.97-.34-4.21-1.02c-1.24-.68-2.22-1.66-2.93-2.93-.71-1.27-1.07-2.76-1.07-4.47s.36-3.22,1.07-4.5c.71-1.27,1.69-2.25,2.93-2.92,1.24-.67,2.65-1.01,4.21-1.01s2.96.34,4.2,1.01ZM485.94,195.28c-.92.48-1.66,1.22-2.23,2.21-.56.99-.84,2.21-.84,3.66s.28,2.66.84,3.64c.56.98,1.3,1.71,2.23,2.2.92.48,1.93.72,3.01.72s2.05-.24,2.96-.72c.91-.48,1.65-1.21,2.21-2.2.56-.98.84-2.2.84-3.64s-.28-2.66-.84-3.66c-.56-.99-1.3-1.73-2.21-2.21-.91-.48-1.9-.72-2.96-.72s-2.09.24-3.01.72Z"/>
      <path class="st2" d="M514.72,194.46c1.19,1.21,1.79,2.99,1.79,5.34v9.57h-2.08v-9.42c0-1.79-.45-3.15-1.35-4.11-.9-.95-2.14-1.43-3.7-1.43-1.64,0-2.95.53-3.93,1.58-.97,1.05-1.46,2.6-1.46,4.65v8.72h-2.14v-16.43h2.14v4.03c.42-1.4,1.18-2.48,2.29-3.22,1.1-.74,2.37-1.11,3.79-1.11,1.91,0,3.45.61,4.65,1.82Z"/>
      <path class="st2" d="M521.88,188.49c.29-.26.67-.39,1.13-.39s.83.13,1.11.39c.28.26.42.61.42,1.05s-.14.76-.42,1.02c-.28.26-.65.39-1.11.39s-.84-.13-1.13-.39c-.29-.26-.44-.6-.44-1.02s.15-.79.44-1.05ZM524.06,192.94v16.43h-2.14v-16.43h2.14Z"/>
      <path class="st2" d="M540.77,194.02c1.17.86,1.98,2.01,2.42,3.43v-4.51h2.08v16.43h-2.08v-4.51c-.44,1.42-1.25,2.57-2.42,3.43-1.17.86-2.59,1.29-4.26,1.29-1.49,0-2.81-.34-3.99-1.02-1.17-.68-2.09-1.66-2.74-2.93-.65-1.27-.98-2.76-.98-4.47s.33-3.22.98-4.5c.65-1.27,1.56-2.25,2.72-2.92,1.16-.67,2.5-1.01,4-1.01,1.66,0,3.08.43,4.26,1.29ZM532.62,196.35c-1.11,1.17-1.67,2.77-1.67,4.8s.56,3.63,1.67,4.8c1.11,1.17,2.59,1.76,4.44,1.76,1.16,0,2.21-.27,3.14-.81.93-.54,1.66-1.31,2.2-2.3.53-.99.8-2.14.8-3.45s-.27-2.45-.8-3.44c-.53-.99-1.26-1.76-2.2-2.3-.93-.54-1.98-.81-3.14-.81-1.85,0-3.32.59-4.44,1.76Z"/>
      <path class="st2" d="M552.94,187.1v22.26h-2.14v-22.26h2.14Z"/>
    </g>
    <g>
      <path class="st2" d="M374.97,169.64h0c-3.81,0-7.24-2.32-8.67-5.85l-24.19-60.1h17.62l15.24,42.61,15-42.61h17.86l-24.19,60.1c-1.42,3.54-4.85,5.85-8.67,5.85Z"/>
      <path class="st2" d="M545.78,169.64c-4.01,0-7.26-3.25-7.26-7.26v-1.31c-6.31,7.14-12.62,10.12-21.91,10.12-19.28,0-33.21-14.41-33.21-34.28s14.05-34.76,33.57-34.76c9.52,0,16.07,3.09,21.55,10.36v-8.81h14.52v58.69c0,4.01-3.25,7.26-7.26,7.26h0ZM518.64,116.67c-11.31,0-19.28,8.57-19.28,20.59s7.98,19.4,19.52,19.4,19.17-8.57,19.17-19.52c0-12.02-8.1-20.48-19.41-20.48Z"/>
      <path class="st2" d="M302.35,193.48c-15.59,0-27.51-7.45-32.66-20.17h17.31c4.47,4.93,8.83,6.76,15.93,6.76,11.35,0,17.19-6.65,17.76-20.29-5.96,6.99-11.92,9.86-20.86,9.86-18.11,0-31.17-14.1-31.17-33.7s13.29-32.78,31.29-32.78c9.17,0,16.05,3.09,20.74,9.51v-8.96h14.56v52.4c0,27.28-13.18,37.36-32.89,37.36ZM301.66,117.15c-10.66,0-17.65,7.79-17.65,19.48s6.99,19.02,17.88,19.02,18.11-7.56,18.11-19.02-7.45-19.48-18.34-19.48Z"/>
      <path class="st2" d="M198.94,169.64h0c-3.81,0-7.24-2.32-8.67-5.85l-24.19-60.1h17.62l15.24,42.61,15-42.61h17.86l-24.19,60.1c-1.42,3.54-4.85,5.85-8.67,5.85Z"/>
      <g>
        <path class="st2" d="M250.94,110.39c-2.78,0-5.44-.48-7.92-1.36v52.69c0,4.37,3.54,7.92,7.92,7.92s7.92-3.54,7.92-7.92v-52.69c-2.48.88-5.14,1.36-7.92,1.36Z"/>
        <circle class="st0" cx="250.94" cy="94.59" r="9.09"/>
      </g>
      <g>
        <path class="st2" d="M426.97,110.39c-2.78,0-5.44-.48-7.92-1.36v52.69c0,4.37,3.54,7.92,7.92,7.92s7.92-3.54,7.92-7.92v-52.69c-2.48.88-5.14,1.36-7.92,1.36Z"/>
        <circle class="st3" cx="426.97" cy="94.59" r="9.09"/>
      </g>
      <path class="st2" d="M465.99,118.09v43.63c0,4.37-3.54,7.92-7.92,7.92h0c-4.37,0-7.92-3.54-7.92-7.92v-43.63h0v-14.41h0v-22.02h15.83v22.02h9.52v14.41h-9.52Z"/>
    </g>
  </g>
  <g>
    <path class="st0" d="M64.31,110.08l22.88-6.29-18.78-68.43c-1.74-6.32-8.27-10.03-14.58-8.29-6.32,1.74-10.03,8.27-8.29,14.58l18.78,68.43Z"/>
    <path class="st3" d="M108.11,125.08h0c6.32,1.74,12.85-1.98,14.58-8.29l20.55-75.14c1.74-6.32-1.98-12.85-8.29-14.58-6.32-1.74-12.85,1.98-14.58,8.29l-20.55,75.14c-1.74,6.32,1.98,12.85,8.29,14.58Z"/>
    <path class="st1" d="M147.1,140.57c-.02-.05-.02-.1-.04-.15-.39-1.22-.96-2.33-1.67-3.32-.9-1.34-1.62-1.83-1.62-1.83h0c-3.03-2.77-7.42-3.91-11.61-2.57l-49.05,15.59c-6.24,1.98-9.7,8.66-7.71,14.9,1.98,6.24,8.65,9.7,14.9,7.71l38.08-12.1c-.47,3.36-1.47,6.65-3.08,9.76-3.71,7.17-10,12.47-17.7,14.92l-13.26,4.21c-15.89,5.06-28.16-3.77-33.21-19.66l-6.75-21.25,32.93-10.47c6.19-1.97,10.07-8.45,8.29-14.7-1.84-6.46-8.64-10.08-15-8.06l-39.39,12.58c-7.35,2.34-11.41,10.2-9.07,17.54l9.69,30.5c6.82,21.47,21.98,35.2,43.39,35.2,5.05,0,10.19-.77,15.26-2.38l13.26-4.21h0c12.85-4.09,23.35-12.93,29.55-24.91,3.61-6.98,5.5-14.54,5.65-22.18,0-.09.01-.18.01-.27.2-7.07-.72-11.77-1.84-14.85Z"/>
  </g>
</svg>